<svg id="Layer_1" enable-background="new 0 0 512 512" height="512" viewBox="0 0 512 512" width="512" xmlns="http://www.w3.org/2000/svg"><g id="XMLID_2749_"><g id="XMLID_17_"><path id="XMLID_848_" d="m479.733 129.47c-18.872-19.116-43.465-30.621-69.961-32.884-6.093-25.795-20.344-49.199-40.684-66.569-22.665-19.357-51.583-30.017-81.428-30.017-39.916 0-76.959 18.737-100.617 50.507-10.442-3.404-21.324-5.126-32.45-5.126-11.155 0-22.139 1.745-32.646 5.187-5.249 1.719-8.11 7.367-6.391 12.615s7.369 8.112 12.616 6.391c8.495-2.781 17.384-4.192 26.421-4.192 11.22 0 22.124 2.159 32.41 6.416 4.449 1.845 9.579.252 12.206-3.783 19.571-30.066 52.637-48.015 88.451-48.015 51.699 0 95.434 36.942 103.992 87.842.801 4.764 4.893 8.274 9.724 8.341 49.97.69 90.624 41.919 90.624 91.904 0 50.686-41.236 91.921-91.921 91.921h-11.079v-57.796c0-11.527-7.401-27.916-42.658-40.528-24.285-8.688-56.369-13.472-90.342-13.472s-66.057 4.784-90.342 13.472c-35.257 12.612-42.658 29.001-42.658 40.528v57.796h-38.844c-35.376 0-64.156-28.78-64.156-64.155 0-27.786 17.732-52.279 44.124-60.948 4.671-1.535 7.534-6.238 6.751-11.093-.726-4.498-1.093-9.08-1.093-13.62 0-8.431 1.231-16.751 3.659-24.73 1.608-5.283-1.372-10.87-6.656-12.478-5.282-1.611-10.87 1.371-12.478 6.655-3.003 9.868-4.525 20.147-4.525 30.553 0 2.887.121 5.786.359 8.679-30.304 13.345-50.141 43.321-50.141 76.982 0 46.403 37.752 84.155 84.156 84.155h38.844v137.992c0 11.527 7.401 27.916 42.658 40.528 24.284 8.688 56.369 13.472 90.342 13.472s66.058-4.784 90.342-13.472c35.257-12.612 42.658-29.001 42.658-40.528v-137.992h11.079c61.714 0 111.921-50.207 111.921-111.921 0-29.62-11.459-57.54-32.267-78.617zm-110.733 184.672c0 5.158-7.698 13.936-29.394 21.697-22.178 7.934-51.87 12.303-83.606 12.303s-61.428-4.369-83.606-12.303c-21.696-7.762-29.394-16.539-29.394-21.697v-42.149c5.832 3.742 13.243 7.38 22.658 10.748 24.285 8.688 56.369 13.472 90.342 13.472s66.058-4.784 90.342-13.472c9.414-3.368 16.826-7.006 22.658-10.748zm-226 29.78c5.832 3.742 13.243 7.38 22.658 10.748 24.285 8.688 56.369 13.472 90.342 13.472s66.058-4.784 90.342-13.472c9.414-3.368 16.826-7.006 22.658-10.748v42.148c0 5.158-7.698 13.936-29.394 21.697-22.178 7.934-51.87 12.303-83.606 12.303s-61.428-4.369-83.606-12.303c-21.696-7.761-29.394-16.538-29.394-21.697zm29.394-123.406c22.179-7.935 51.87-12.304 83.606-12.304s61.427 4.369 83.606 12.304c21.696 7.76 29.394 16.538 29.394 21.696s-7.698 13.936-29.394 21.697c-22.178 7.934-51.87 12.303-83.606 12.303s-61.428-4.369-83.606-12.303c-21.696-7.762-29.394-16.539-29.394-21.697s7.698-13.936 29.394-21.696zm167.212 259.181c-22.178 7.934-51.87 12.303-83.606 12.303s-61.428-4.369-83.606-12.303c-21.696-7.761-29.394-16.539-29.394-21.697v-42.149c5.832 3.742 13.243 7.38 22.658 10.748 24.285 8.688 56.369 13.472 90.342 13.472s66.058-4.784 90.342-13.472c9.414-3.368 16.826-7.006 22.658-10.748v42.149c0 5.158-7.698 13.936-29.394 21.697z"/><path id="XMLID_893_" d="m86.86 93.859c2.63 0 5.21-1.069 7.07-2.93 1.86-1.87 2.93-4.439 2.93-7.08 0-2.63-1.07-5.2-2.93-7.069-1.86-1.86-4.44-2.921-7.07-2.921s-5.21 1.061-7.07 2.921c-1.86 1.869-2.93 4.439-2.93 7.069 0 2.641 1.07 5.21 2.93 7.08 1.86 1.861 4.44 2.93 7.07 2.93z"/></g></g></svg>