<svg height="512" viewBox="0 0 64 64" width="512" xmlns="http://www.w3.org/2000/svg"><g id="fillter-pass-data-right-currency"><path d="m2.46 19.842 22.54 14.458v8.7a1 1 0 0 0 1 1h12a1 1 0 0 0 1-1v-8.7l22.54-14.458a1 1 0 0 0 -.54-1.842h-58a1 1 0 0 0 -.54 1.842zm55.128.158-20.128 12.908a1 1 0 0 0 -.46.842v8.25h-10v-8.25a1 1 0 0 0 -.46-.842l-20.128-12.908z"/><path d="m32 46a8 8 0 1 0 8 8 8.009 8.009 0 0 0 -8-8zm0 14a6 6 0 1 1 6-6 6.006 6.006 0 0 1 -6 6z"/><path d="m31.682 54.586-2.127-1.418-1.11 1.664 3 2a1.007 1.007 0 0 0 .555.168 1.036 1.036 0 0 0 .22-.024 1 1 0 0 0 .637-.461l3-5-1.714-1.03z"/><path d="m54 40a8 8 0 1 0 8 8 8.009 8.009 0 0 0 -8-8zm0 14a6 6 0 1 1 6-6 6.006 6.006 0 0 1 -6 6z"/><path d="m53.682 48.586-2.127-1.418-1.11 1.664 3 2a1.007 1.007 0 0 0 .555.168 1.036 1.036 0 0 0 .22-.024 1 1 0 0 0 .637-.461l3-5-1.714-1.03z"/><path d="m10 40a8 8 0 1 0 8 8 8.009 8.009 0 0 0 -8-8zm0 14a6 6 0 1 1 6-6 6.006 6.006 0 0 1 -6 6z"/><path d="m9.682 48.586-2.127-1.418-1.11 1.664 3 2a1.007 1.007 0 0 0 .555.168 1.036 1.036 0 0 0 .22-.024 1 1 0 0 0 .637-.461l3-5-1.714-1.03z"/><path d="m33 16a4 4 0 1 0 -4-4 4 4 0 0 0 4 4zm0-6a2 2 0 1 1 -2 2 2 2 0 0 1 2-2z"/><path d="m58 13a4 4 0 1 0 -4-4 4 4 0 0 0 4 4zm0-6a2 2 0 1 1 -2 2 2 2 0 0 1 2-2z"/><path d="m23 12a5 5 0 1 0 -5-5 5.006 5.006 0 0 0 5 5zm0-8a3 3 0 1 1 -3 3 3 3 0 0 1 3-3z"/><path d="m45 14a6 6 0 1 0 -6-6 6.006 6.006 0 0 0 6 6zm0-10a4 4 0 1 1 -4 4 4 4 0 0 1 4-4z"/><path d="m9 16a6 6 0 1 0 -6-6 6.006 6.006 0 0 0 6 6zm0-10a4 4 0 1 1 -4 4 4 4 0 0 1 4-4z"/><path d="m32 33a1 1 0 0 0 .707-.293l3-3-1.414-1.414-1.293 1.293v-7.586h-2v7.586l-1.293-1.293-1.414 1.414 3 3a1 1 0 0 0 .707.293z"/></g></svg>