<?xml version="1.0"?>
<svg xmlns="http://www.w3.org/2000/svg" viewBox="0 0 64 64" width="512" height="512"><g id="Storefront-Digital_Marketing" data-name="Storefront-Digital Marketing"><path d="M55,26H42V18.974A4.977,4.977,0,0,0,44,15V11a1,1,0,0,0-.2-.6l-6-8A1,1,0,0,0,37,2H9a1,1,0,0,0-.8.4l-6,8A1,1,0,0,0,2,11v4a4.977,4.977,0,0,0,2,3.974V39a4.915,4.915,0,0,0,.622,2.362l-1.185.684a3,3,0,0,0-1.1,4.1l2,3.463a3,3,0,0,0,4.1,1.1h0l3.5,6.063a3,3,0,0,0,4.1,1.1l1.732-1a3,3,0,0,0,1.1-4.1l-3.062-5.3,7.565-1.093a3.028,3.028,0,0,0,2.174.932,2.982,2.982,0,0,0,1.484-.395l.011-.007A3.026,3.026,0,0,0,28.5,44H34V59a3,3,0,0,0,3,3H55a3,3,0,0,0,3-3V29A3,3,0,0,0,55,26Zm-5.387,2-.334,1H42.721l-.334-1ZM39,18a3,3,0,0,1-3-3H34a3,3,0,0,1-6,0H26a3,3,0,0,1-6,0H18a3,3,0,0,1-6,0H10a3,3,0,0,1-6,0V12H42v3A3,3,0,0,1,39,18ZM9.5,4h27L41,10H5ZM6.679,49.074a1,1,0,0,1-.607-.466l-2-3.465a1,1,0,0,1,.365-1.365l.867-.5,3,5.2-.867.5A1,1,0,0,1,6.679,49.074Zm2.086-7.8,3,5.2-1.728,1-3-5.194Zm6.9-8.049,6.523,11.293L14.062,45.7l-.4.056L10.334,40Zm1.471,20.54a1,1,0,0,1-.366,1.365l-1.732,1a1,1,0,0,1-1.366-.366l-3.5-6.062h0l3.293-1.9.209-.03Zm8.893-8.594a1.018,1.018,0,0,1-1.372-.376l-8-13.846a1.01,1.01,0,0,1,.4-1.381.917.917,0,0,1,.476-.122,1,1,0,0,1,.864.5l3.085,5.342c.013.03.029.06.045.089l4.7,8.112.172.3A1.02,1.02,0,0,1,26.027,45.175Zm-1.4-8.433h0l-1-1.73,0,0a1,1,0,1,1,1,1.732ZM27.663,42l-2.039-3.526a3,3,0,1,0-3-5.2l-2.5-4.327a3.005,3.005,0,0,0-2.595-1.5,2.877,2.877,0,0,0-1.5.4,3,3,0,0,0-1.382,3.428L8.463,39.141,6.349,40.363A2.922,2.922,0,0,1,6,39V19.9a4.962,4.962,0,0,0,5-1.93,4.954,4.954,0,0,0,8,0,4.954,4.954,0,0,0,8,0,4.954,4.954,0,0,0,8,0,4.962,4.962,0,0,0,5,1.93V26H37a3,3,0,0,0-3,3V42ZM56,59a1,1,0,0,1-1,1H37a1,1,0,0,1-1-1V29a1,1,0,0,1,1-1h3.28l.543,1.632A2,2,0,0,0,42.721,31h6.558a2,2,0,0,0,1.9-1.367L51.72,28H55a1,1,0,0,1,1,1Z"/><path d="M46.919,40.061,46,40.75l-.919-.689a4.2,4.2,0,1,0-5.039,6.72L45.4,50.8a1,1,0,0,0,1.2,0l5.358-4.019a4.2,4.2,0,1,0-5.039-6.72Zm4.7,3.636a2.185,2.185,0,0,1-.862,1.484L46,48.75l-4.759-3.569a2.2,2.2,0,1,1,2.641-3.52L45.4,42.8a1,1,0,0,0,1.2,0l1.518-1.139a2.2,2.2,0,0,1,3.5,2.036Z"/><rect x="28.186" y="31.375" width="4.001" height="2" transform="translate(-12.142 19.427) rotate(-29.995)"/><rect x="24.016" y="27.363" width="4.243" height="2" transform="translate(-8.023 46.269) rotate(-75)"/><rect x="30.638" y="35.768" width="2" height="4.242" transform="translate(-13.149 58.64) rotate(-74.998)"/></g></svg>
