<?xml version="1.0" encoding="utf-8"?>
<!-- Generator: Adobe Illustrator 16.0.0, SVG Export Plug-In . SVG Version: 6.00 Build 0)  -->
<!DOCTYPE svg PUBLIC "-//W3C//DTD SVG 1.1//EN" "http://www.w3.org/Graphics/SVG/1.1/DTD/svg11.dtd">
<svg version="1.1" id="Layer_1" xmlns="http://www.w3.org/2000/svg" xmlns:xlink="http://www.w3.org/1999/xlink" x="0px" y="0px"
	 width="512px" height="512px" viewBox="0 0 512 512" enable-background="new 0 0 512 512" xml:space="preserve">
<g id="media-monitor-screen-Digital_Marketing">
	<path fill="#D81A1A" d="M472,120h-16v-8h8c13.254,0,24-10.745,24-24s-10.746-24-24-24l0,0h-8V24c0.023-2.542-1.203-4.935-3.28-6.4
		c-2.01-1.522-4.623-1.997-7.04-1.28L342.8,48H288c-4.419,0-8,3.582-8,8v8h-16c-4.419,0-8,3.582-8,8v32c0,4.418,3.581,8,8,8h16v8
		h-48V48c0-4.418-3.582-8-8-8H64c-4.419,0-8,3.582-8,8v72H40c-13.238,0.04-23.961,10.762-24,24v256
		c0.039,13.238,10.762,23.961,24,24h184v24h-48c-4.419,0-8,3.582-8,8v32c0,4.418,3.581,8,8,8h160c4.418,0,8-3.582,8-8v-32
		c0-4.418-3.582-8-8-8h-48v-24h184c13.238-0.039,23.96-10.762,24-24V144C495.96,130.762,485.239,120.04,472,120z M456,80h8
		c4.418,0,8,3.582,8,8s-3.582,8-8,8h-8V80z M352,61.92l88-27.12v106.4l-88-27.12V61.92z M296,64h40v48h-40V64z M318.8,128l-5.761,40
		H304v-40H318.8z M272,96V80h8v16H272z M72,56h144v112H72V56z M328,464v16H184v-16H328z M240,448v-24h32v24H240z M480,400
		c0,4.418-3.582,8-8,8H40c-4.419,0-8-3.582-8-8v-8h448V400z M480,376H32V144c0-4.418,3.581-8,8-8h16v40c0,4.418,3.581,8,8,8h160
		c4.418,0,8-3.582,8-8v-40h56v40c0,4.418,3.581,8,8,8h24c3.984,0,7.361-2.934,7.92-6.88l7.04-49.12h7.84l102.88,31.68
		c0.751,0.229,1.534,0.337,2.32,0.32c4.391-0.064,7.936-3.609,8-8v-16h16c4.418,0,8,3.582,8,8V376z"/>
	<path fill="#D81A1A" d="M56,360h208c4.418,0,8-3.582,8-8V224c0-4.418-3.582-8-8-8H56c-4.419,0-8,3.582-8,8v128
		C48,356.418,51.581,360,56,360z M64,344V238.312l91.808,56.504c2.571,1.581,5.813,1.581,8.384,0L256,238.312V344H64z M84.264,232
		h151.472L160,278.607L84.264,232z"/>
	<path fill="#D81A1A" d="M296,312h16v24c0,4.418,3.581,8,8,8h136c4.418,0,8-3.582,8-8v-96c0-4.418-3.582-8-8-8h-8v-24
		c0-4.418-3.582-8-8-8H296c-4.419,0-8,3.582-8,8v96C288,308.418,291.581,312,296,312z M448,328H328v-80h120V328z M304,216h128v16
		H320c-4.419,0-8,3.582-8,8v56h-8V216z"/>
	<path fill="#D81A1A" d="M344,264h16v16h-16V264z"/>
	<path fill="#D81A1A" d="M376,264h56v16h-56V264z"/>
	<path fill="#D81A1A" d="M344,296h32v16h-32V296z"/>
	<path fill="#D81A1A" d="M392,296h40v16h-40V296z"/>
	<path fill="#D81A1A" d="M123.792,142.808c2.358,1.458,5.304,1.591,7.784,0.352l48-24c3.954-1.971,5.562-6.774,3.591-10.729
		c-0.775-1.556-2.036-2.816-3.591-3.592l-48-24c-3.953-1.975-8.758-0.372-10.732,3.581c-0.556,1.111-0.845,2.337-0.844,3.58v48
		C119.998,138.773,121.434,141.349,123.792,142.808z M136,100.944L158.112,112L136,123.056V100.944z"/>
</g>
</svg>
